<svg width="211" height="211" viewBox="0 0 211 211" fill="none" xmlns="http://www.w3.org/2000/svg">
<rect width="210.129" height="210.129" fill="#0C18EC"/>
<path d="M36.6992 63.3848V142.593C82.2715 169.528 122.714 116.425 173.437 142.593V63.3848C125.928 36.1084 82.2928 90.3202 36.6992 63.3848ZM76.2903 120.026V149.199C61.582 134.687 52.3441 123.563 37.9338 107.581C51.0456 95.7116 63.519 86.5484 76.2903 71.3972V90.853C89.0828 88.6794 101.875 84.3535 114.647 80.7522C101.854 94.0707 89.0616 108.114 76.2903 120.005V120.026ZM133.846 134.602V115.146C121.054 117.32 108.261 121.645 95.4898 125.225C108.282 111.907 121.075 97.8639 133.846 85.9731V56.8001C148.576 71.6956 157.473 79.09 172.203 94.7526C161.113 105.834 147.299 121.326 133.846 134.602Z" fill="#D4DCFA"/>
</svg>
