<svg width="213" height="213" viewBox="0 0 213 213" fill="none" xmlns="http://www.w3.org/2000/svg">
<rect x="0.5" y="0.5" width="211.129" height="211.129" fill="white"/>
<rect x="0.5" y="0.5" width="211.129" height="211.129" stroke="#CFCFCF"/>
<path d="M37.6992 64.3848V143.593C83.2715 170.528 123.714 117.425 174.437 143.593V64.3848C126.928 37.1084 83.2928 91.3202 37.6992 64.3848ZM77.2903 121.026V150.199C62.582 135.687 53.3441 124.563 38.9338 108.581C52.0456 96.7116 64.519 87.5484 77.2903 72.3972V91.853C90.0828 89.6794 102.875 85.3535 115.647 81.7522C102.854 95.0707 90.0616 109.114 77.2903 121.005V121.026ZM134.846 135.602V116.146C122.054 118.32 109.261 122.645 96.4898 126.225C109.282 112.907 122.075 98.8639 134.846 86.9731V57.8001C149.576 72.6956 158.473 80.09 173.203 95.7526C162.113 106.834 148.299 122.326 134.846 135.602Z" fill="#04085F"/>
</svg>
