<svg width="200" height="200" viewBox="0 0 200 200" fill="none" xmlns="http://www.w3.org/2000/svg">
<g clip-path="url(#clip0_3761_2850)">
<rect width="200" height="199.765" fill="#0C18EC"/>
<rect width="100" height="199.765" fill="#8897F2"/>
<path d="M179.812 118.78L100.234 180.517L20.1875 118.78V20.188H179.812V118.78ZM40.1406 59.8589H100V79.812H40.1406V100H100V119.954H54.3818L100.198 155.291L159.858 109.005V40.1411H40.1406V59.8589ZM129.46 58.2163C136.396 58.2164 142.019 63.839 142.019 70.7749C142.019 77.7108 136.396 83.3334 129.46 83.3335C122.524 83.3335 116.901 77.7108 116.901 70.7749C116.901 63.8389 122.524 58.2163 129.46 58.2163Z" fill="#0C18EC"/>
<mask id="mask0_3761_2850" style="mask-type:alpha" maskUnits="userSpaceOnUse" x="20" y="20" width="160" height="161">
<path d="M179.812 118.78L100.234 180.517L20.1875 118.78V20.188H179.812V118.78ZM40.1406 59.8589H100V79.812H40.1406V100H100V119.954H54.3818L100.198 155.291L159.858 109.005V40.1411H40.1406V59.8589ZM129.46 58.2163C136.396 58.2164 142.019 63.839 142.019 70.7749C142.019 77.7108 136.396 83.3334 129.46 83.3335C122.524 83.3335 116.901 77.7108 116.901 70.7749C116.901 63.8389 122.524 58.2163 129.46 58.2163Z" fill="#0C18EC"/>
</mask>
<g mask="url(#mask0_3761_2850)">
<rect x="100" width="100" height="199.765" fill="#8897F2"/>
</g>
</g>
<defs>
<clipPath id="clip0_3761_2850">
<rect width="200" height="199.765" fill="white"/>
</clipPath>
</defs>
</svg>
