<svg width="710" height="710" viewBox="0 0 710 710" fill="none" xmlns="http://www.w3.org/2000/svg">
<g clip-path="url(#clip0_3761_2849)">
<rect width="710" height="710" fill="#8897F2"/>
<mask id="mask0_3761_2849" style="mask-type:alpha" maskUnits="userSpaceOnUse" x="355" y="0" width="355" height="710">
<path d="M355 0H710V710H355V0Z" fill="#8897F2"/>
</mask>
<g mask="url(#mask0_3761_2849)">
<path d="M354.583 73.002C472.404 73.002 567.917 168.627 567.917 286.586V357.086H640.833L640.833 639.083L72.5 639.083L72.5 357.086H141.25V286.586C141.25 168.627 236.763 73.0021 354.583 73.002ZM354.583 143.919C275.883 143.919 212.083 207.793 212.083 286.586L212.083 357.086L497.083 357.086V286.586C497.083 207.793 433.283 143.919 354.583 143.919Z" fill="#0C18EC"/>
</g>
<path d="M0 0H355V710H0V0Z" fill="#0C18EC"/>
<mask id="mask1_3761_2849" style="mask-type:alpha" maskUnits="userSpaceOnUse" x="0" y="-1" width="1065" height="711">
<path d="M355.834 710H0.833984V0H355.834V710ZM1065 709.166H710.001V-0.833984H1065V709.166Z" fill="#8897F2"/>
</mask>
<g mask="url(#mask1_3761_2849)">
<path d="M354.583 73.0024C472.404 73.0024 567.917 168.627 567.917 286.586V357.086H640.833L640.833 639.083L72.5 639.083L72.5 357.086H141.25V286.586C141.25 168.627 236.763 73.0026 354.583 73.0024ZM354.583 143.919C275.883 143.92 212.083 207.794 212.083 286.586L212.083 357.086L497.083 357.086V286.586C497.083 207.793 433.283 143.919 354.583 143.919Z" fill="#8897F2"/>
</g>
</g>
<defs>
<clipPath id="clip0_3761_2849">
<rect width="710" height="710" fill="white"/>
</clipPath>
</defs>
</svg>
