<svg width="200" height="200" viewBox="0 0 200 200" fill="none" xmlns="http://www.w3.org/2000/svg">
<g clip-path="url(#clip0_3761_2852)">
<rect width="100" height="199.765" fill="#0C18EC"/>
<path d="M100.615 23.709C138.406 23.709 169.043 54.3447 169.043 92.1357C169.043 129.927 138.407 160.563 100.615 160.563C90.0528 160.563 80.049 158.17 71.1172 153.896L38.9668 192.723L20.4219 178.639L47.4443 145.291H57.5205C42.065 132.745 32.1885 113.594 32.1885 92.1357C32.1887 54.3447 62.8241 23.709 100.615 23.709ZM100.615 46.2441C75.27 46.2442 54.7239 66.7905 54.7236 92.1357C54.7236 117.481 75.2698 138.028 100.615 138.028C125.961 138.028 146.508 117.481 146.508 92.1357C146.508 66.7905 125.961 46.2442 100.615 46.2441Z" fill="#8897F2"/>
<rect x="100" width="100" height="199.765" fill="#8897F2"/>
<mask id="mask0_3761_2852" style="mask-type:alpha" maskUnits="userSpaceOnUse" x="20" y="23" width="150" height="170">
<path d="M100.615 23.709C138.406 23.709 169.043 54.3447 169.043 92.1357C169.043 129.927 138.407 160.563 100.615 160.563C90.0528 160.563 80.049 158.17 71.1172 153.896L38.9668 192.723L20.4219 178.639L47.4443 145.291H57.5205C42.065 132.745 32.1885 113.594 32.1885 92.1357C32.1887 54.3447 62.8241 23.709 100.615 23.709ZM100.615 46.2441C75.27 46.2442 54.7239 66.7905 54.7236 92.1357C54.7236 117.481 75.2698 138.028 100.615 138.028C125.961 138.028 146.508 117.481 146.508 92.1357C146.508 66.7905 125.961 46.2442 100.615 46.2441Z" fill="#0C18EC"/>
</mask>
<g mask="url(#mask0_3761_2852)">
<rect x="100" width="100" height="199.765" fill="#0C18EC"/>
</g>
</g>
<defs>
<clipPath id="clip0_3761_2852">
<rect width="200" height="199.765" fill="white"/>
</clipPath>
</defs>
</svg>
